<?xml version="1.0" encoding="UTF-8" standalone="no"?>
<!DOCTYPE svg PUBLIC "-//W3C//DTD SVG 1.1//EN" "http://www.w3.org/Graphics/SVG/1.1/DTD/svg11.dtd">
<svg width="100%" height="100%" viewBox="0 0 1067 188" version="1.1" xmlns="http://www.w3.org/2000/svg" xmlns:xlink="http://www.w3.org/1999/xlink" xml:space="preserve" xmlns:serif="http://www.serif.com/" style="fill-rule:evenodd;clip-rule:evenodd;stroke-linejoin:round;stroke-miterlimit:2;">
    <g id="Artboard1" transform="matrix(0.941862,0,0,0.794109,-119.64,-115.52)">
        <rect x="127.025" y="145.472" width="1131.91" height="235.747" style="fill:none;"/>
        <g transform="matrix(1.06173,0,0,1.25927,-63.2057,-73.8674)">
            <rect x="236.92" y="232.02" width="31.17" height="124.03" style="fill:rgb(41,171,226);"/>
        </g>
        <g transform="matrix(1.06173,0,0,1.25927,-63.2057,-73.8674)">
            <rect x="179.26" y="178.99" width="31.17" height="177.71" style="fill:rgb(247,147,30);"/>
        </g>
        <g transform="matrix(1.06173,0,0,1.25927,-63.2057,-73.8674)">
            <path d="M462.4,311.48L399.62,311.48L384.48,357.4L350.94,357.4L413.98,178.35L448.03,178.35L511.07,357.47L477.53,357.47L462.39,311.55L462.39,311.49L462.4,311.48ZM430.85,209.32C430.85,209.32 426.81,226.96 423.28,237.09L407.38,285L454.32,285L438.42,237.09C435.15,227.02 431.37,209.32 431.37,209.32L430.85,209.32Z" style="fill:white;fill-rule:nonzero;"/>
        </g>
        <g transform="matrix(1.06173,0,0,1.25927,-63.2057,-73.8674)">
            <path d="M538.08,311.48C538.08,311.48 557.51,330.4 582.72,330.4C596.32,330.4 608.69,323.35 608.69,308.72C608.69,276.65 524.16,282.23 524.16,227.27C524.22,197.51 549.94,175.26 584.25,175.26C618.56,175.26 637.74,194.44 637.74,194.44L623.63,220.93C623.63,220.93 606.51,205.28 584.06,205.28C568.92,205.28 557.06,214.13 557.06,226.7C557.06,258.51 641.33,250.69 641.33,307.89C641.33,336.36 619.65,360.35 582.33,360.35C542.5,360.35 520.51,335.92 520.51,335.92L538.15,311.42L538.09,311.48L538.08,311.48Z" style="fill:white;fill-rule:nonzero;"/>
        </g>
        <g transform="matrix(1.06173,0,0,1.25927,-63.2057,-73.8674)">
            <path d="M673.78,178.35L706.29,178.35L774.14,281.79C780.94,292.12 789.02,309.56 789.02,309.56L789.53,309.56C789.53,309.56 787.73,292.44 787.73,281.79L787.73,178.35L819.99,178.35L819.99,357.4L787.73,357.4L719.88,254.21C713.08,243.88 705,226.44 705,226.44L704.49,226.44C704.49,226.44 706.29,243.56 706.29,254.21L706.29,357.4L673.78,357.4L673.78,178.35Z" style="fill:white;fill-rule:nonzero;"/>
        </g>
        <g transform="matrix(1.06173,0,0,1.25927,-63.2057,-73.8674)">
            <path d="M954.55,311.48L891.77,311.48L876.63,357.4L843.09,357.4L906.13,178.35L940.18,178.35L1003.22,357.47L969.68,357.47L954.54,311.55L954.54,311.49L954.55,311.48ZM922.99,209.32C922.99,209.32 918.95,226.96 915.42,237.09L899.52,285L946.46,285L930.56,237.09C927.29,227.02 923.51,209.32 923.51,209.32L922.99,209.32Z" style="fill:white;fill-rule:nonzero;"/>
        </g>
        <g transform="matrix(1.06173,0,0,1.25927,-63.2057,-73.8674)">
            <path d="M1026.18,178.35L1087.23,178.35C1142.45,178.35 1178.55,211.12 1178.55,267.62C1178.55,324.12 1142.51,357.4 1087.23,357.4L1026.18,357.4L1026.18,178.35ZM1085.44,329.44C1121.74,329.44 1144.95,308.02 1144.95,267.62C1144.95,227.22 1121.22,206.31 1085.44,206.31L1058.7,206.31L1058.7,329.44L1085.44,329.44Z" style="fill:white;fill-rule:nonzero;"/>
        </g>
        <g transform="matrix(1.06173,0,0,1.25927,-63.2057,-73.8674)">
            <rect x="1212.55" y="179.05" width="32.51" height="177.71" style="fill:white;fill-rule:nonzero;"/>
        </g>
        <g transform="matrix(1.06173,0,0,1.25927,-63.2057,-73.8674)">
            <path d="M295.02,206.82L236.72,206.82L236.72,178.99L356.97,178.99L356.97,206.82L327.28,206.82L327.28,356.76L295.02,356.76L295.02,206.82Z" style="fill:white;fill-rule:nonzero;"/>
        </g>
    </g>
</svg>
